<svg width="76" height="69" viewBox="0 0 76 69" fill="none" xmlns="http://www.w3.org/2000/svg">
<path d="M21.2069 68.7461C22.8966 68.7461 24.069 67.8852 26.1724 66.0972L38.069 55.9318H60.2068C70.4827 55.9318 76 50.4684 76 40.767V15.4034C76 5.70168 70.4827 0.238281 60.2068 0.238281H15.7931C5.51725 0.238281 0 5.66859 0 15.4034V40.767C0 50.5017 5.51725 55.9318 15.7931 55.9318H17.4483V64.5409C17.4483 67.0906 18.7931 68.7461 21.2069 68.7461ZM22.6207 62.6868V53.0843C22.6207 51.2963 21.8966 50.6009 20.0345 50.6009H15.7931C8.82759 50.6009 5.55173 47.1905 5.55173 40.7336V15.4034C5.55173 8.94662 8.82759 5.56924 15.7931 5.56924H60.2068C67.138 5.56924 70.4483 8.94662 70.4483 15.4034V40.7336C70.4483 47.1905 67.138 50.6009 60.2068 50.6009H37.8621C35.931 50.6009 34.9655 50.8659 33.6552 52.1572L22.6207 62.6868ZM32.4482 45.27H45.4483C46.7586 45.27 47.7932 44.376 47.7932 43.1178C47.7932 41.8927 46.7586 40.9656 45.4483 40.9656H41.4829V25.3368C41.4829 23.6813 40.6208 22.5886 39 22.5886H32.9999C31.6896 22.5886 30.6553 23.5488 30.6553 24.7409C30.6553 25.9991 31.6896 26.8931 32.9999 26.8931H36.4138V40.9656H32.4482C31.1379 40.9656 30.138 41.8927 30.138 43.1178C30.138 44.376 31.1379 45.27 32.4482 45.27ZM37.7586 17.4894C40.1035 17.4894 41.9311 15.7014 41.9311 13.4829C41.9311 11.2313 40.1035 9.4764 37.7586 9.4764C35.4484 9.4764 33.5863 11.2313 33.5863 13.4829C33.5863 15.7014 35.4484 17.4894 37.7586 17.4894Z" fill="black"/>
</svg>
