<svg width="22" height="24" viewBox="0 0 22 24" fill="none" xmlns="http://www.w3.org/2000/svg">
<path d="M8.51953 11.5312H12.9609C13.7344 11.5312 14.2852 10.9805 14.2852 10.207V9.38672C14.2852 8.12109 13.3594 7.23047 12.0234 7.23047H9.45703C8.13281 7.23047 7.20703 8.12109 7.20703 9.38672V10.207C7.20703 10.9805 7.75781 11.5312 8.51953 11.5312ZM9.02344 10.0664C8.84766 10.0664 8.73047 9.94922 8.73047 9.76172V9.38672C8.73047 8.90625 8.98828 8.69531 9.51562 8.69531H11.9648C12.5039 8.69531 12.7617 8.90625 12.7617 9.38672V9.76172C12.7617 9.94922 12.6445 10.0664 12.457 10.0664H9.02344ZM8.53125 17.1445H12.9609C13.7344 17.1445 14.2852 16.5938 14.2852 15.8086V14.0625C14.2852 13.2891 13.7344 12.75 12.9609 12.75H8.53125C7.75781 12.75 7.20703 13.2891 7.20703 14.0625V15.8086C7.20703 16.5938 7.75781 17.1445 8.53125 17.1445ZM8.97656 15.668C8.78906 15.668 8.67188 15.5625 8.67188 15.375V14.5195C8.67188 14.332 8.78906 14.2148 8.97656 14.2148H12.5156C12.7031 14.2148 12.8203 14.332 12.8203 14.5195V15.375C12.8203 15.5625 12.7031 15.668 12.5156 15.668H8.97656ZM8.75391 13.7461H10.3242V10.7344H8.75391V13.7461ZM11.168 13.7461H12.7383V10.7344H11.168V13.7461ZM8.51953 22.1953H10.0898V16.5234H8.51953V22.1953ZM11.4023 22.1953H12.9727V16.5234H11.4023V22.1953ZM1.38281 23.168H20.1094C20.6133 23.168 21.0469 22.7461 21.0469 22.2422C21.0469 21.7148 20.6133 21.3047 20.1094 21.3047H1.38281C0.878906 21.3047 0.445312 21.7148 0.445312 22.2422C0.445312 22.7461 0.878906 23.168 1.38281 23.168ZM1.93359 9.9375C1.93359 9.375 1.48828 8.96484 0.972656 8.96484C0.433594 8.96484 0 9.38672 0 9.9375C0 10.4648 0.433594 10.8867 0.972656 10.8867C1.48828 10.8867 1.93359 10.4766 1.93359 9.9375ZM5.625 9.9375C5.625 9.23438 5.0625 8.67188 4.37109 8.67188C3.69141 8.67188 3.12891 9.23438 3.12891 9.9375C3.12891 10.6055 3.69141 11.168 4.37109 11.168C5.0625 11.168 5.625 10.6055 5.625 9.9375ZM4.19531 3.69141C4.59375 3.30469 4.58203 2.69531 4.20703 2.33203C3.83203 1.94531 3.22266 1.94531 2.83594 2.33203C2.46094 2.70703 2.46094 3.30469 2.84766 3.67969C3.21094 4.05469 3.82031 4.07812 4.19531 3.69141ZM6.80859 6.30469C7.30078 5.8125 7.28906 5.01562 6.80859 4.53516C6.33984 4.05469 5.54297 4.04297 5.05078 4.54688C4.57031 5.01562 4.57031 5.8125 5.05078 6.28125C5.54297 6.78516 6.33984 6.79688 6.80859 6.30469ZM10.7461 1.93359C11.2852 1.93359 11.6953 1.48828 11.6953 0.960938C11.6953 0.421875 11.2734 0 10.7461 0C10.207 0 9.77344 0.421875 9.77344 0.960938C9.77344 1.48828 10.1953 1.93359 10.7461 1.93359ZM10.7461 5.625C11.4258 5.625 11.9766 5.05078 11.9766 4.37109C11.9766 3.69141 11.4258 3.11719 10.7461 3.11719C10.043 3.11719 9.49219 3.69141 9.49219 4.37109C9.49219 5.05078 10.043 5.625 10.7461 5.625ZM17.2969 3.69141C17.6719 4.07812 18.2812 4.05469 18.6445 3.67969C19.0312 3.30469 19.0312 2.70703 18.6562 2.33203C18.2695 1.94531 17.6602 1.94531 17.2852 2.33203C16.9102 2.69531 16.8984 3.30469 17.2969 3.69141ZM14.6836 6.30469C15.1523 6.79688 15.9492 6.78516 16.4414 6.28125C16.9219 5.8125 16.9219 5.01562 16.4414 4.54688C15.9492 4.04297 15.1523 4.05469 14.6836 4.53516C14.1914 5.01562 14.1797 5.8125 14.6836 6.30469ZM19.5586 9.9375C19.5586 10.4766 20.0039 10.8867 20.5195 10.8867C21.0586 10.8867 21.4922 10.4648 21.4922 9.9375C21.4922 9.38672 21.0586 8.96484 20.5195 8.96484C20.0039 8.96484 19.5586 9.375 19.5586 9.9375ZM15.8672 9.9375C15.8672 10.6055 16.4297 11.168 17.1211 11.168C17.8008 11.168 18.3633 10.6055 18.3633 9.9375C18.3633 9.23438 17.8008 8.67188 17.1211 8.67188C16.4297 8.67188 15.8672 9.23438 15.8672 9.9375Z" fill="black"/>
</svg>
